<svg version="1.0" xmlns="http://www.w3.org/2000/svg"
 width="512.000000pt" height="512.000000pt" viewBox="0 0 512.000000 512.000000"
 preserveAspectRatio="xMidYMid meet">

<g transform="translate(0.000000,512.000000) scale(0.100000,-0.100000)"
fill="#000000" stroke="none">
<path d="M2723 4268 l-152 -153 187 -193 187 -194 128 129 c70 71 127 132 127
136 0 4 -36 7 -80 7 l-80 0 0 -34 0 -33 -35 16 c-40 19 -45 31 -12 32 20 1 19
2 -5 11 -27 9 -28 12 -28 88 0 78 0 79 -27 82 -33 4 -41 31 -51 165 l-7 93
-152 -152z"/>
<path d="M1786 3334 c-208 -211 -384 -384 -390 -384 -7 0 -32 20 -56 45 -24
25 -47 45 -50 45 -12 0 -29 -85 -19 -94 5 -6 9 -31 9 -57 0 -38 -4 -48 -20
-52 -11 -3 -20 -12 -20 -21 0 -21 -26 -21 -38 0 -8 15 -10 15 -15 0 -4 -10 -1
-16 8 -16 37 0 -26 -73 -371 -428 -168 -174 -195 -206 -231 -279 -58 -115 -77
-207 -71 -346 5 -125 31 -214 90 -315 44 -76 718 -755 802 -807 32 -21 95 -51
140 -68 77 -30 88 -31 226 -32 161 0 198 8 325 73 58 30 103 69 262 226 l193
190 192 -190 c173 -171 201 -195 275 -232 115 -57 207 -76 346 -70 125 5 214
31 315 90 76 44 754 718 807 802 66 104 97 205 103 333 6 138 -13 230 -70 346
-37 74 -60 101 -232 275 l-190 192 124 125 125 125 -83 0 -82 0 0 -36 c0 -31
-2 -35 -15 -24 -10 8 -15 31 -15 71 0 56 -1 59 -25 59 -23 0 -25 4 -25 44 0
41 -2 45 -27 48 -32 4 -40 27 -49 146 -6 72 -9 82 -26 82 -12 0 -73 -53 -150
-129 l-130 -129 -290 287 c-291 287 -338 324 -338 269 0 -13 -8 -31 -17 -39
-10 -9 -25 -26 -33 -39 -20 -30 -31 -41 -65 -65 -15 -11 -36 -28 -47 -37 -10
-10 -27 -18 -38 -18 -17 0 -20 -7 -20 -50 l0 -50 -87 0 -88 0 320 -320 320
-320 -393 -392 -392 -393 -320 320 -320 320 0 -88 c0 -86 0 -87 -24 -87 -16 0
-27 -7 -31 -20 -4 -12 -23 -38 -43 -60 -20 -21 -42 -45 -48 -52 -28 -31 -95
-88 -103 -88 -5 0 -13 -9 -16 -20 -4 -13 -15 -20 -33 -20 -23 0 17 -44 283
-312 171 -172 301 -305 290 -295 -20 16 -25 12 -170 -134 -83 -83 -163 -157
-179 -166 -20 -10 -45 -14 -79 -10 l-49 4 -315 314 c-173 173 -321 326 -329
341 -17 32 -18 91 -3 121 14 28 310 327 324 327 5 0 33 -23 61 -51 l52 -52 27
43 c14 23 45 76 67 118 23 43 49 88 58 102 10 14 41 72 70 130 l53 105 389
390 389 391 -186 184 c-102 102 -191 186 -198 187 -6 1 -183 -172 -391 -383z
m2106 -1322 c129 -130 158 -164 163 -195 16 -82 16 -81 -322 -419 -175 -174
-328 -321 -340 -327 -30 -15 -89 -14 -121 3 -15 8 -94 82 -177 165 l-150 151
55 57 c157 166 716 723 726 723 6 0 81 -71 166 -158z m-1442 -889 c0 -8 -13 5
-110 105 l-105 107 108 -105 c59 -57 107 -106 107 -107z"/>
</g>
</svg>
